<svg width="16" height="16" viewBox="0 0 16 16" fill="none" xmlns="http://www.w3.org/2000/svg">
<path fill-rule="evenodd" clip-rule="evenodd" d="M9.14286 3.42857C9.14286 5.32211 7.60783 6.85714 5.71429 6.85714C3.82074 6.85714 2.28571 5.32211 2.28571 3.42857C2.28571 1.53503 3.82074 0 5.71429 0C7.60783 0 9.14286 1.53503 9.14286 3.42857ZM12.2857 8.57143C12.7591 8.57143 13.1429 8.95519 13.1429 9.42857V11.4286H15.1429C15.6162 11.4286 16 11.8123 16 12.2857C16 12.7591 15.6162 13.1429 15.1429 13.1429H13.1429V15.1429C13.1429 15.6162 12.7591 16 12.2857 16C11.8123 16 11.4286 15.6162 11.4286 15.1429V13.1429H9.42857C8.95519 13.1429 8.57143 12.7591 8.57143 12.2857C8.57143 11.8123 8.95519 11.4286 9.42857 11.4286H11.4286V9.42857C11.4286 8.95519 11.8123 8.57143 12.2857 8.57143ZM5.71429 7.99997C7.42099 7.99997 8.95294 8.74818 10 9.9345V9.99999H9.42857C8.16621 9.99999 7.14286 11.0233 7.14286 12.2857C7.14286 13.1463 7.61842 13.8958 8.32109 14.2857H0.571429C0.255838 14.2857 0 14.0298 0 13.7143C0 10.5583 2.55838 7.99997 5.71429 7.99997Z" fill="white"/>
</svg>
