<svg width="252" height="50" viewBox="0 0 252 50" fill="none" xmlns="http://www.w3.org/2000/svg">
<path d="M83.14 7.96V22H79.72V13.58L76.58 22H73.82L70.66 13.56V22H67.24V7.96H71.28L75.22 17.68L79.12 7.96H83.14ZM84.9194 16.4C84.9194 15.2533 85.1327 14.2467 85.5594 13.38C85.9994 12.5133 86.5927 11.8467 87.3394 11.38C88.086 10.9133 88.9194 10.68 89.8394 10.68C90.626 10.68 91.3127 10.84 91.8994 11.16C92.4994 11.48 92.9594 11.9 93.2794 12.42V10.84H96.6994V22H93.2794V20.42C92.946 20.94 92.4794 21.36 91.8794 21.68C91.2927 22 90.606 22.16 89.8194 22.16C88.9127 22.16 88.086 21.9267 87.3394 21.46C86.5927 20.98 85.9994 20.3067 85.5594 19.44C85.1327 18.56 84.9194 17.5467 84.9194 16.4ZM93.2794 16.42C93.2794 15.5667 93.0394 14.8933 92.5594 14.4C92.0927 13.9067 91.5194 13.66 90.8394 13.66C90.1594 13.66 89.5794 13.9067 89.0994 14.4C88.6327 14.88 88.3994 15.5467 88.3994 16.4C88.3994 17.2533 88.6327 17.9333 89.0994 18.44C89.5794 18.9333 90.1594 19.18 90.8394 19.18C91.5194 19.18 92.0927 18.9333 92.5594 18.44C93.0394 17.9467 93.2794 17.2733 93.2794 16.42ZM110.574 10.84L103.574 27.3H99.8936L102.454 21.62L97.9136 10.84H101.734L104.314 17.82L106.874 10.84H110.574ZM115.23 7.2V22H111.81V7.2H115.23ZM128.729 10.84V22H125.309V20.48C124.962 20.9733 124.489 21.3733 123.889 21.68C123.302 21.9733 122.649 22.12 121.929 22.12C121.075 22.12 120.322 21.9333 119.669 21.56C119.015 21.1733 118.509 20.62 118.149 19.9C117.789 19.18 117.609 18.3333 117.609 17.36V10.84H121.009V16.9C121.009 17.6467 121.202 18.2267 121.589 18.64C121.975 19.0533 122.495 19.26 123.149 19.26C123.815 19.26 124.342 19.0533 124.729 18.64C125.115 18.2267 125.309 17.6467 125.309 16.9V10.84H128.729ZM134.385 19.18H139.225V22H130.565V19.28L135.205 13.66H130.605V10.84H139.125V13.56L134.385 19.18ZM156.045 12.48C156.045 13.2933 155.859 14.04 155.485 14.72C155.112 15.3867 154.539 15.9267 153.765 16.34C152.992 16.7533 152.032 16.96 150.885 16.96H148.765V22H145.345V7.96H150.885C152.005 7.96 152.952 8.15333 153.725 8.54C154.499 8.92667 155.079 9.46 155.465 10.14C155.852 10.82 156.045 11.6 156.045 12.48ZM150.625 14.24C151.279 14.24 151.765 14.0867 152.085 13.78C152.405 13.4733 152.565 13.04 152.565 12.48C152.565 11.92 152.405 11.4867 152.085 11.18C151.765 10.8733 151.279 10.72 150.625 10.72H148.765V14.24H150.625ZM164.686 10.72C165.966 10.72 166.993 11.1467 167.766 12C168.539 12.84 168.926 14 168.926 15.48V22H165.526V15.94C165.526 15.1933 165.333 14.6133 164.946 14.2C164.559 13.7867 164.039 13.58 163.386 13.58C162.733 13.58 162.213 13.7867 161.826 14.2C161.439 14.6133 161.246 15.1933 161.246 15.94V22H157.826V7.2H161.246V12.34C161.593 11.8467 162.066 11.4533 162.666 11.16C163.266 10.8667 163.939 10.72 164.686 10.72ZM170.623 16.4C170.623 15.2533 170.836 14.2467 171.263 13.38C171.703 12.5133 172.296 11.8467 173.043 11.38C173.789 10.9133 174.623 10.68 175.543 10.68C176.329 10.68 177.016 10.84 177.603 11.16C178.203 11.48 178.663 11.9 178.983 12.42V10.84H182.403V22H178.983V20.42C178.649 20.94 178.183 21.36 177.583 21.68C176.996 22 176.309 22.16 175.523 22.16C174.616 22.16 173.789 21.9267 173.043 21.46C172.296 20.98 171.703 20.3067 171.263 19.44C170.836 18.56 170.623 17.5467 170.623 16.4ZM178.983 16.42C178.983 15.5667 178.743 14.8933 178.263 14.4C177.796 13.9067 177.223 13.66 176.543 13.66C175.863 13.66 175.283 13.9067 174.803 14.4C174.336 14.88 174.103 15.5467 174.103 16.4C174.103 17.2533 174.336 17.9333 174.803 18.44C175.283 18.9333 175.863 19.18 176.543 19.18C177.223 19.18 177.796 18.9333 178.263 18.44C178.743 17.9467 178.983 17.2733 178.983 16.42ZM188.297 12.7C188.697 12.0867 189.197 11.6067 189.797 11.26C190.397 10.9 191.063 10.72 191.797 10.72V14.34H190.857C190.003 14.34 189.363 14.5267 188.937 14.9C188.51 15.26 188.297 15.9 188.297 16.82V22H184.877V10.84H188.297V12.7ZM207.671 10.72C209.058 10.72 210.158 11.14 210.971 11.98C211.798 12.82 212.211 13.9867 212.211 15.48V22H208.811V15.94C208.811 15.22 208.618 14.6667 208.231 14.28C207.858 13.88 207.338 13.68 206.671 13.68C206.005 13.68 205.478 13.88 205.091 14.28C204.718 14.6667 204.531 15.22 204.531 15.94V22H201.131V15.94C201.131 15.22 200.938 14.6667 200.551 14.28C200.178 13.88 199.658 13.68 198.991 13.68C198.325 13.68 197.798 13.88 197.411 14.28C197.038 14.6667 196.851 15.22 196.851 15.94V22H193.431V10.84H196.851V12.24C197.198 11.7733 197.651 11.4067 198.211 11.14C198.771 10.86 199.405 10.72 200.111 10.72C200.951 10.72 201.698 10.9 202.351 11.26C203.018 11.62 203.538 12.1333 203.911 12.8C204.298 12.1867 204.825 11.6867 205.491 11.3C206.158 10.9133 206.885 10.72 207.671 10.72ZM213.923 16.4C213.923 15.2533 214.137 14.2467 214.563 13.38C215.003 12.5133 215.597 11.8467 216.343 11.38C217.09 10.9133 217.923 10.68 218.843 10.68C219.63 10.68 220.317 10.84 220.903 11.16C221.503 11.48 221.963 11.9 222.283 12.42V10.84H225.703V22H222.283V20.42C221.95 20.94 221.483 21.36 220.883 21.68C220.297 22 219.61 22.16 218.823 22.16C217.917 22.16 217.09 21.9267 216.343 21.46C215.597 20.98 215.003 20.3067 214.563 19.44C214.137 18.56 213.923 17.5467 213.923 16.4ZM222.283 16.42C222.283 15.5667 222.043 14.8933 221.563 14.4C221.097 13.9067 220.523 13.66 219.843 13.66C219.163 13.66 218.583 13.9067 218.103 14.4C217.637 14.88 217.403 15.5467 217.403 16.4C217.403 17.2533 217.637 17.9333 218.103 18.44C218.583 18.9333 219.163 19.18 219.843 19.18C220.523 19.18 221.097 18.9333 221.563 18.44C222.043 17.9467 222.283 17.2733 222.283 16.42ZM227.498 16.42C227.498 15.26 227.731 14.2467 228.198 13.38C228.678 12.5133 229.338 11.8467 230.178 11.38C231.031 10.9133 232.004 10.68 233.098 10.68C234.498 10.68 235.664 11.0467 236.598 11.78C237.544 12.5133 238.164 13.5467 238.458 14.88H234.818C234.511 14.0267 233.918 13.6 233.038 13.6C232.411 13.6 231.911 13.8467 231.538 14.34C231.164 14.82 230.978 15.5133 230.978 16.42C230.978 17.3267 231.164 18.0267 231.538 18.52C231.911 19 232.411 19.24 233.038 19.24C233.918 19.24 234.511 18.8133 234.818 17.96H238.458C238.164 19.2667 237.544 20.2933 236.598 21.04C235.651 21.7867 234.484 22.16 233.098 22.16C232.004 22.16 231.031 21.9267 230.178 21.46C229.338 20.9933 228.678 20.3267 228.198 19.46C227.731 18.5933 227.498 17.58 227.498 16.42ZM251.687 10.84L244.687 27.3H241.007L243.567 21.62L239.027 10.84H242.847L245.427 17.82L247.987 10.84H251.687ZM75.2845 45L74.277 44.0235C73.2747 44.7882 72.076 45.1705 70.681 45.1705C69.844 45.1705 69.1155 45.0362 68.4955 44.7675C67.8755 44.4885 67.395 44.101 67.054 43.605C66.7233 43.0987 66.558 42.5097 66.558 41.838C66.558 41.156 66.7388 40.5412 67.1005 39.9935C67.4725 39.4355 68.0253 38.9808 68.759 38.6295C68.4903 38.2988 68.2992 37.9837 68.1855 37.684C68.0718 37.374 68.015 37.0382 68.015 36.6765C68.015 36.1598 68.1493 35.6897 68.418 35.266C68.6867 34.8423 69.0742 34.5117 69.5805 34.274C70.0972 34.026 70.7068 33.902 71.4095 33.902C72.1225 33.902 72.727 34.0312 73.223 34.2895C73.719 34.5478 74.091 34.894 74.339 35.328C74.587 35.762 74.7007 36.2373 74.68 36.754H72.1845C72.1948 36.475 72.1225 36.2632 71.9675 36.1185C71.8228 35.9635 71.6265 35.886 71.3785 35.886C71.1305 35.886 70.9238 35.9583 70.7585 36.103C70.5932 36.2477 70.5105 36.4337 70.5105 36.661C70.5105 36.878 70.5777 37.1053 70.712 37.343C70.8567 37.5807 71.0788 37.8545 71.3785 38.1645L74.029 40.753C74.0497 40.7013 74.0755 40.6393 74.1065 40.567C74.1478 40.4947 74.1892 40.412 74.2305 40.319L74.804 39.3425H77.4545L76.7105 40.691C76.4315 41.3007 76.1112 41.8793 75.7495 42.427L78.369 45H75.2845ZM70.805 43.0315C71.4973 43.0315 72.1122 42.8352 72.6495 42.4425L70.2315 40.102C69.4875 40.4843 69.1155 41.001 69.1155 41.652C69.1155 42.0447 69.2653 42.3753 69.565 42.644C69.875 42.9023 70.2883 43.0315 70.805 43.0315ZM89.8354 37.56C89.639 37.1983 89.3549 36.9245 88.9829 36.7385C88.6212 36.5422 88.1924 36.444 87.6964 36.444C86.8387 36.444 86.1515 36.7282 85.6349 37.2965C85.1182 37.8545 84.8599 38.6037 84.8599 39.544C84.8599 40.5463 85.1285 41.3317 85.6659 41.9C86.2135 42.458 86.9627 42.737 87.9134 42.737C88.5644 42.737 89.112 42.5717 89.5564 42.241C90.011 41.9103 90.3417 41.435 90.5484 40.815H87.1849V38.862H92.9509V41.3265C92.7545 41.9878 92.4187 42.6027 91.9434 43.171C91.4784 43.7393 90.8842 44.1992 90.1609 44.5505C89.4375 44.9018 88.6212 45.0775 87.7119 45.0775C86.6372 45.0775 85.6762 44.845 84.8289 44.38C83.9919 43.9047 83.3357 43.2485 82.8604 42.4115C82.3954 41.5745 82.1629 40.6187 82.1629 39.544C82.1629 38.4693 82.3954 37.5135 82.8604 36.6765C83.3357 35.8292 83.9919 35.173 84.8289 34.708C85.6659 34.2327 86.6217 33.995 87.6964 33.995C88.9984 33.995 90.0937 34.3102 90.9824 34.9405C91.8814 35.5708 92.4755 36.444 92.7649 37.56H89.8354ZM102.572 40.536C102.572 40.784 102.557 41.0423 102.526 41.311H96.527C96.5683 41.8483 96.7388 42.2617 97.0385 42.551C97.3485 42.83 97.7257 42.9695 98.17 42.9695C98.8313 42.9695 99.2912 42.6905 99.5495 42.1325H102.371C102.226 42.7008 101.962 43.2123 101.58 43.667C101.208 44.1217 100.738 44.4782 100.17 44.7365C99.6012 44.9948 98.9657 45.124 98.263 45.124C97.4157 45.124 96.6613 44.9432 96 44.5815C95.3387 44.2198 94.822 43.7032 94.45 43.0315C94.078 42.3598 93.892 41.5745 93.892 40.6755C93.892 39.7765 94.0728 38.9912 94.4345 38.3195C94.8065 37.6478 95.3232 37.1312 95.9845 36.7695C96.6458 36.4078 97.4053 36.227 98.263 36.227C99.1 36.227 99.844 36.4027 100.495 36.754C101.146 37.1053 101.652 37.6065 102.014 38.2575C102.386 38.9085 102.572 39.668 102.572 40.536ZM99.8595 39.8385C99.8595 39.3838 99.7045 39.0222 99.3945 38.7535C99.0845 38.4848 98.697 38.3505 98.232 38.3505C97.7877 38.3505 97.4105 38.4797 97.1005 38.738C96.8008 38.9963 96.6148 39.3632 96.5425 39.8385H99.8595ZM109.24 36.258C110.253 36.258 111.059 36.5887 111.658 37.25C112.268 37.901 112.573 38.8 112.573 39.947V45H109.938V40.3035C109.938 39.7248 109.788 39.2753 109.488 38.955C109.189 38.6347 108.786 38.4745 108.279 38.4745C107.773 38.4745 107.37 38.6347 107.07 38.955C106.771 39.2753 106.621 39.7248 106.621 40.3035V45H103.97V36.351H106.621V37.498C106.889 37.1157 107.251 36.816 107.706 36.599C108.16 36.3717 108.672 36.258 109.24 36.258ZM122.568 40.536C122.568 40.784 122.552 41.0423 122.521 41.311H116.523C116.564 41.8483 116.734 42.2617 117.034 42.551C117.344 42.83 117.721 42.9695 118.166 42.9695C118.827 42.9695 119.287 42.6905 119.545 42.1325H122.366C122.221 42.7008 121.958 43.2123 121.576 43.667C121.204 44.1217 120.733 44.4782 120.165 44.7365C119.597 44.9948 118.961 45.124 118.259 45.124C117.411 45.124 116.657 44.9432 115.996 44.5815C115.334 44.2198 114.818 43.7032 114.446 43.0315C114.074 42.3598 113.888 41.5745 113.888 40.6755C113.888 39.7765 114.068 38.9912 114.43 38.3195C114.802 37.6478 115.319 37.1312 115.98 36.7695C116.641 36.4078 117.401 36.227 118.259 36.227C119.096 36.227 119.84 36.4027 120.491 36.754C121.142 37.1053 121.648 37.6065 122.01 38.2575C122.382 38.9085 122.568 39.668 122.568 40.536ZM119.855 39.8385C119.855 39.3838 119.7 39.0222 119.39 38.7535C119.08 38.4848 118.693 38.3505 118.228 38.3505C117.783 38.3505 117.406 38.4797 117.096 38.738C116.796 38.9963 116.61 39.3632 116.538 39.8385H119.855ZM126.616 37.7925C126.926 37.3172 127.314 36.9452 127.779 36.6765C128.244 36.3975 128.761 36.258 129.329 36.258V39.0635H128.6C127.939 39.0635 127.443 39.2082 127.112 39.4975C126.782 39.7765 126.616 40.2725 126.616 40.9855V45H123.966V36.351H126.616V37.7925ZM130.069 40.66C130.069 39.7713 130.234 38.9912 130.565 38.3195C130.906 37.6478 131.366 37.1312 131.944 36.7695C132.523 36.4078 133.169 36.227 133.882 36.227C134.491 36.227 135.024 36.351 135.478 36.599C135.943 36.847 136.3 37.1725 136.548 37.5755V36.351H139.198V45H136.548V43.7755C136.289 44.1785 135.928 44.504 135.463 44.752C135.008 45 134.476 45.124 133.866 45.124C133.164 45.124 132.523 44.9432 131.944 44.5815C131.366 44.2095 130.906 43.6877 130.565 43.016C130.234 42.334 130.069 41.5487 130.069 40.66ZM136.548 40.6755C136.548 40.0142 136.362 39.4923 135.99 39.11C135.628 38.7277 135.184 38.5365 134.657 38.5365C134.13 38.5365 133.68 38.7277 133.308 39.11C132.947 39.482 132.766 39.9987 132.766 40.66C132.766 41.3213 132.947 41.8483 133.308 42.241C133.68 42.6233 134.13 42.8145 134.657 42.8145C135.184 42.8145 135.628 42.6233 135.99 42.241C136.362 41.8587 136.548 41.3368 136.548 40.6755ZM143.766 33.53V45H141.116V33.53H143.766ZM161.294 34.119V45H158.644V38.4745L156.21 45H154.071L151.622 38.459V45H148.972V34.119H152.103L155.156 41.652L158.179 34.119H161.294ZM171.353 40.536C171.353 40.784 171.338 41.0423 171.307 41.311H165.308C165.35 41.8483 165.52 42.2617 165.82 42.551C166.13 42.83 166.507 42.9695 166.951 42.9695C167.613 42.9695 168.072 42.6905 168.331 42.1325H171.152C171.007 42.7008 170.744 43.2123 170.361 43.667C169.989 44.1217 169.519 44.4782 168.951 44.7365C168.382 44.9948 167.747 45.124 167.044 45.124C166.197 45.124 165.443 44.9432 164.781 44.5815C164.12 44.2198 163.603 43.7032 163.231 43.0315C162.859 42.3598 162.673 41.5745 162.673 40.6755C162.673 39.7765 162.854 38.9912 163.216 38.3195C163.588 37.6478 164.104 37.1312 164.766 36.7695C165.427 36.4078 166.187 36.227 167.044 36.227C167.881 36.227 168.625 36.4027 169.276 36.754C169.927 37.1053 170.434 37.6065 170.795 38.2575C171.167 38.9085 171.353 39.668 171.353 40.536ZM168.641 39.8385C168.641 39.3838 168.486 39.0222 168.176 38.7535C167.866 38.4848 167.478 38.3505 167.013 38.3505C166.569 38.3505 166.192 38.4797 165.882 38.738C165.582 38.9963 165.396 39.3632 165.324 39.8385H168.641ZM175.402 37.7925C175.712 37.3172 176.1 36.9452 176.565 36.6765C177.03 36.3975 177.546 36.258 178.115 36.258V39.0635H177.386C176.725 39.0635 176.229 39.2082 175.898 39.4975C175.567 39.7765 175.402 40.2725 175.402 40.9855V45H172.752V36.351H175.402V37.7925ZM178.854 40.6755C178.854 39.7765 179.035 38.9912 179.397 38.3195C179.769 37.6478 180.28 37.1312 180.931 36.7695C181.593 36.4078 182.347 36.227 183.194 36.227C184.279 36.227 185.184 36.5112 185.907 37.0795C186.641 37.6478 187.121 38.4487 187.348 39.482H184.527C184.29 38.8207 183.83 38.49 183.148 38.49C182.662 38.49 182.275 38.6812 181.985 39.0635C181.696 39.4355 181.551 39.9728 181.551 40.6755C181.551 41.3782 181.696 41.9207 181.985 42.303C182.275 42.675 182.662 42.861 183.148 42.861C183.83 42.861 184.29 42.5303 184.527 41.869H187.348C187.121 42.8817 186.641 43.6773 185.907 44.256C185.173 44.8347 184.269 45.124 183.194 45.124C182.347 45.124 181.593 44.9432 180.931 44.5815C180.28 44.2198 179.769 43.7032 179.397 43.0315C179.035 42.3598 178.854 41.5745 178.854 40.6755ZM194.083 36.258C195.075 36.258 195.87 36.5887 196.47 37.25C197.069 37.901 197.369 38.8 197.369 39.947V45H194.734V40.3035C194.734 39.7248 194.584 39.2753 194.284 38.955C193.985 38.6347 193.582 38.4745 193.075 38.4745C192.569 38.4745 192.166 38.6347 191.866 38.955C191.567 39.2753 191.417 39.7248 191.417 40.3035V45H188.766V33.53H191.417V37.5135C191.685 37.1312 192.052 36.8263 192.517 36.599C192.982 36.3717 193.504 36.258 194.083 36.258ZM198.684 40.66C198.684 39.7713 198.849 38.9912 199.18 38.3195C199.521 37.6478 199.98 37.1312 200.559 36.7695C201.138 36.4078 201.784 36.227 202.497 36.227C203.106 36.227 203.638 36.351 204.093 36.599C204.558 36.847 204.915 37.1725 205.163 37.5755V36.351H207.813V45H205.163V43.7755C204.904 44.1785 204.543 44.504 204.078 44.752C203.623 45 203.091 45.124 202.481 45.124C201.778 45.124 201.138 44.9432 200.559 44.5815C199.98 44.2095 199.521 43.6877 199.18 43.016C198.849 42.334 198.684 41.5487 198.684 40.66ZM205.163 40.6755C205.163 40.0142 204.977 39.4923 204.605 39.11C204.243 38.7277 203.799 38.5365 203.272 38.5365C202.745 38.5365 202.295 38.7277 201.923 39.11C201.561 39.482 201.381 39.9987 201.381 40.66C201.381 41.3213 201.561 41.8483 201.923 42.241C202.295 42.6233 202.745 42.8145 203.272 42.8145C203.799 42.8145 204.243 42.6233 204.605 42.241C204.977 41.8587 205.163 41.3368 205.163 40.6755ZM215.001 36.258C216.013 36.258 216.819 36.5887 217.419 37.25C218.028 37.901 218.333 38.8 218.333 39.947V45H215.698V40.3035C215.698 39.7248 215.548 39.2753 215.249 38.955C214.949 38.6347 214.546 38.4745 214.04 38.4745C213.533 38.4745 213.13 38.6347 212.831 38.955C212.531 39.2753 212.381 39.7248 212.381 40.3035V45H209.731V36.351H212.381V37.498C212.65 37.1157 213.011 36.816 213.466 36.599C213.921 36.3717 214.432 36.258 215.001 36.258ZM219.648 40.66C219.648 39.7713 219.813 38.9912 220.144 38.3195C220.485 37.6478 220.945 37.1312 221.523 36.7695C222.102 36.4078 222.748 36.227 223.461 36.227C224.029 36.227 224.546 36.3458 225.011 36.5835C225.486 36.8212 225.858 37.1415 226.127 37.5445V33.53H228.777V45H226.127V43.76C225.879 44.1733 225.522 44.504 225.057 44.752C224.603 45 224.071 45.124 223.461 45.124C222.748 45.124 222.102 44.9432 221.523 44.5815C220.945 44.2095 220.485 43.6877 220.144 43.016C219.813 42.334 219.648 41.5487 219.648 40.66ZM226.127 40.6755C226.127 40.0142 225.941 39.4923 225.569 39.11C225.207 38.7277 224.763 38.5365 224.236 38.5365C223.709 38.5365 223.259 38.7277 222.887 39.11C222.526 39.482 222.345 39.9987 222.345 40.66C222.345 41.3213 222.526 41.8483 222.887 42.241C223.259 42.6233 223.709 42.8145 224.236 42.8145C224.763 42.8145 225.207 42.6233 225.569 42.241C225.941 41.8587 226.127 41.3368 226.127 40.6755ZM232.028 35.452C231.563 35.452 231.181 35.3177 230.881 35.049C230.592 34.77 230.447 34.429 230.447 34.026C230.447 33.6127 230.592 33.2717 230.881 33.003C231.181 32.724 231.563 32.5845 232.028 32.5845C232.483 32.5845 232.855 32.724 233.144 33.003C233.444 33.2717 233.593 33.6127 233.593 34.026C233.593 34.429 233.444 34.77 233.144 35.049C232.855 35.3177 232.483 35.452 232.028 35.452ZM233.345 36.351V45H230.695V36.351H233.345ZM237.746 42.8145H241.497V45H234.786V42.892L238.382 38.5365H234.817V36.351H241.42V38.459L237.746 42.8145ZM251.109 40.536C251.109 40.784 251.093 41.0423 251.062 41.311H245.064C245.105 41.8483 245.275 42.2617 245.575 42.551C245.885 42.83 246.262 42.9695 246.707 42.9695C247.368 42.9695 247.828 42.6905 248.086 42.1325H250.907C250.762 42.7008 250.499 43.2123 250.117 43.667C249.745 44.1217 249.274 44.4782 248.706 44.7365C248.138 44.9948 247.502 45.124 246.8 45.124C245.952 45.124 245.198 44.9432 244.537 44.5815C243.875 44.2198 243.359 43.7032 242.987 43.0315C242.615 42.3598 242.429 41.5745 242.429 40.6755C242.429 39.7765 242.609 38.9912 242.971 38.3195C243.343 37.6478 243.86 37.1312 244.521 36.7695C245.182 36.4078 245.942 36.227 246.8 36.227C247.637 36.227 248.381 36.4027 249.032 36.754C249.683 37.1053 250.189 37.6065 250.551 38.2575C250.923 38.9085 251.109 39.668 251.109 40.536ZM248.396 39.8385C248.396 39.3838 248.241 39.0222 247.931 38.7535C247.621 38.4848 247.234 38.3505 246.769 38.3505C246.324 38.3505 245.947 38.4797 245.637 38.738C245.337 38.9963 245.151 39.3632 245.079 39.8385H248.396Z" fill="black"/>
<path opacity="0.978" fill-rule="evenodd" clip-rule="evenodd" d="M20.9399 4.38006C23.1705 4.26598 24.7638 5.22598 25.7199 7.26006C25.8633 7.66642 26.0166 8.06642 26.1799 8.46006C26.3708 8.62798 26.5841 8.76134 26.8199 8.86006C27.2697 9.37666 27.383 9.96334 27.1599 10.6201C27.0112 11.1109 26.8778 11.6042 26.7599 12.1001C26.6665 12.407 26.5398 12.7003 26.3799 12.9801C26.1332 13.3497 25.8132 13.4363 25.4199 13.2401C25.2282 13.1151 25.0615 12.9617 24.9199 12.7801C24.4596 12.1995 24.0462 11.5861 23.6799 10.9401C23.4788 10.4415 23.4522 9.93486 23.5999 9.42006C23.8023 9.12566 24.0556 8.88566 24.3599 8.70006C24.4205 8.61818 24.4538 8.52482 24.4599 8.42006C24.2006 7.26854 23.5072 6.51522 22.3799 6.16006C20.2162 5.61882 18.7828 6.41214 18.0799 8.54006C17.6726 10.8655 18.5059 12.5921 20.5799 13.7201C21.6603 14.2616 22.7803 14.6616 23.9399 14.9201C25.1494 15.1349 26.3628 15.3616 27.5799 15.6001C28.4643 15.8311 29.3176 16.1511 30.1399 16.5601C32.0448 17.5755 33.0048 19.1688 33.0199 21.3401C32.8243 24.4384 31.4243 26.8251 28.8199 28.5001C27.7719 29.1245 26.6519 29.5245 25.4599 29.7001C25.4222 29.6957 25.3889 29.6824 25.3599 29.6601C25.3332 28.9534 25.3332 28.2467 25.3599 27.5401C27.9797 26.597 29.4064 24.7303 29.6399 21.9401C29.6666 21.4734 29.6666 21.0067 29.6399 20.5401C29.5324 19.9786 29.259 19.5119 28.8199 19.1401C28.2024 18.6839 27.5358 18.3306 26.8199 18.0801C25.0977 17.5415 23.391 16.9948 21.6999 16.4401C20.2821 15.9235 18.9488 15.2369 17.6999 14.3801C17.071 13.8781 16.5844 13.2647 16.2399 12.5401C15.6821 10.9673 15.6821 9.3939 16.2399 7.82006C17.2217 5.85614 18.7884 4.70948 20.9399 4.38006Z" fill="#01A768"/>
<path opacity="0.99" fill-rule="evenodd" clip-rule="evenodd" d="M5.17993 19.46C12.9199 19.4067 20.6666 19.4067 28.4199 19.46C28.9273 19.8949 29.1806 20.4482 29.1799 21.12C29.1743 22.6452 28.7409 24.0252 27.8799 25.26C27.0803 26.2309 26.0803 26.8709 24.8799 27.18C24.8731 29.4883 24.8531 31.795 24.8199 34.1C24.686 34.1315 24.5527 34.1649 24.4199 34.2C24.2453 34.2146 24.0786 34.2212 23.9199 34.22C23.6791 34.1583 23.4324 34.125 23.1799 34.12C23.1523 34.0774 23.1323 34.0307 23.1199 33.98C23.0999 31.8201 23.0933 29.6601 23.0999 27.5C20.1281 27.3792 17.4348 26.4392 15.0199 24.68C14.3205 24.1472 13.6272 23.6072 12.9399 23.06C11.2381 21.7883 9.33145 21.0749 7.21993 20.92C6.59929 20.7968 6.03929 20.5302 5.53993 20.12C5.35465 19.93 5.23465 19.71 5.17993 19.46Z" fill="#01A768"/>
<path opacity="0.981" fill-rule="evenodd" clip-rule="evenodd" d="M33.26 19.42C36.4334 19.4133 39.6067 19.42 42.78 19.44C42.7412 19.6967 42.6212 19.9233 42.42 20.12C41.7424 20.6985 40.9556 20.9785 40.06 20.96C38.4192 21.1995 36.8992 21.7862 35.5 22.72C34.6061 23.3935 33.7127 24.0668 32.82 24.74C32.8067 24.72 32.7933 24.7 32.78 24.68C33.5325 22.9795 33.6925 21.2262 33.26 19.42Z" fill="#01A768"/>
<path opacity="0.975" fill-rule="evenodd" clip-rule="evenodd" d="M22.54 27.62C22.5647 27.6244 22.5847 27.6378 22.6 27.66C22.6333 28.4603 22.6266 29.2603 22.58 30.06C22.2151 30.1857 21.8684 30.359 21.54 30.58C21.0598 31.1199 20.8331 31.7532 20.86 32.48C20.8172 33.2077 21.1105 33.7544 21.74 34.12C22.6368 34.5818 23.5968 34.7685 24.62 34.68C25.0841 34.6395 25.5375 34.5595 25.98 34.44C26.405 34.3139 26.7783 34.0939 27.1 33.78C27.3767 33.4062 27.4501 32.9929 27.32 32.54C27.2197 32.2745 27.0264 32.1212 26.74 32.08C26.5 32.0533 26.26 32.0533 26.02 32.08C25.7935 32.1299 25.5668 32.1766 25.34 32.22C25.3333 31.7132 25.34 31.2065 25.36 30.7C25.5518 30.589 25.7585 30.5157 25.98 30.48C26.4254 30.4086 26.8654 30.3286 27.3 30.24C28.0496 30.1897 28.7696 30.2964 29.46 30.56C30.0764 30.8431 30.4564 31.3165 30.6 31.98C30.7262 32.7674 30.5462 33.474 30.06 34.1C29.5081 34.7782 28.8414 35.3182 28.06 35.72C25.4589 36.9699 22.8855 36.9166 20.34 35.56C18.6495 34.5044 18.0028 32.9911 18.4 31.02C19.1216 29.0652 20.5016 27.9318 22.54 27.62Z" fill="#01A768"/>
<path opacity="0.917" fill-rule="evenodd" clip-rule="evenodd" d="M22.5801 31.74C22.6265 32.2397 22.6332 32.7464 22.6001 33.26C22.4247 33.4112 22.2447 33.5579 22.0601 33.7C21.6591 33.4914 21.4191 33.1647 21.3401 32.72C21.4654 32.5213 21.6254 32.3546 21.8201 32.22C22.07 32.0487 22.3233 31.8887 22.5801 31.74Z" fill="#01A768"/>
<path opacity="0.96" fill-rule="evenodd" clip-rule="evenodd" d="M19.6199 35.74C20.1713 36.1189 20.7579 36.4256 21.3799 36.66C21.3986 37.4828 21.6386 38.2294 22.0999 38.9C22.5528 39.4354 23.1128 39.7888 23.7799 39.96C24.7453 40.135 25.7187 40.2816 26.6999 40.4C27.1674 40.4872 27.6207 40.6205 28.0599 40.8C28.4195 40.9708 28.7328 41.2042 28.9999 41.5C29.1628 41.7158 29.2162 41.9558 29.1599 42.22C29.0463 42.3 28.9196 42.32 28.7799 42.28C28.4908 42.0028 28.1575 41.8028 27.7799 41.68C26.9958 41.6085 26.2092 41.5418 25.4199 41.48C24.6975 41.3936 23.9775 41.287 23.2599 41.16C22.2823 40.9381 21.389 40.5181 20.5799 39.9C19.8152 39.237 19.4285 38.397 19.4199 37.38C19.4492 36.8275 19.5159 36.2808 19.6199 35.74Z" fill="#01A768"/>
<path opacity="0.936" fill-rule="evenodd" clip-rule="evenodd" d="M23.1399 37.02C23.7006 37.0067 24.2606 37.02 24.8199 37.06C24.8733 37.9133 24.8733 38.7667 24.8199 39.62C24.7799 39.6333 24.7399 39.6467 24.6999 39.66C24.2667 39.5779 23.84 39.4646 23.4199 39.32C23.3154 39.2784 23.2221 39.2184 23.1399 39.14C23.0871 38.4333 23.0871 37.7267 23.1399 37.02Z" fill="#01A768"/>
<path opacity="0.959" fill-rule="evenodd" clip-rule="evenodd" d="M23.1001 41.66C23.5912 41.7163 24.0846 41.7763 24.5801 41.84C24.6713 41.8494 24.7513 41.8827 24.8201 41.94C24.8734 42.3668 24.8734 42.7932 24.8201 43.22C24.842 43.7364 25.0953 44.0896 25.5801 44.28C26.1655 44.488 26.7655 44.6348 27.3801 44.72C27.94 44.8336 28.4734 45.0272 28.9801 45.3C29.0947 45.3948 29.2147 45.4816 29.3401 45.56C29.6449 45.6264 29.9516 45.68 30.2601 45.72C31.0707 45.7288 31.8574 45.8488 32.6201 46.08C32.8471 46.1804 33.0471 46.3204 33.2201 46.5C33.2524 46.5628 33.2658 46.6296 33.2601 46.7C27.0734 46.7 20.8868 46.7 14.7001 46.7C14.6965 46.5432 14.7632 46.4232 14.9001 46.34C15.0477 46.2528 15.1943 46.1664 15.3401 46.08C15.5001 46.0268 15.6601 45.9732 15.8201 45.92C16.7536 45.8012 17.6869 45.6812 18.6201 45.56C19.2121 45.1292 19.8654 44.8492 20.5801 44.72C21.2639 44.6492 21.9172 44.476 22.5401 44.2C22.7731 44.0736 22.9531 43.8936 23.0801 43.66C23.0894 43.498 23.1094 43.338 23.1401 43.18C23.1008 42.6752 23.0875 42.1688 23.1001 41.66Z" fill="#01A768"/>
</svg>
