<svg width="48" height="48" viewBox="0 0 48 48" fill="none" xmlns="http://www.w3.org/2000/svg">
<path opacity="0.978" fill-rule="evenodd" clip-rule="evenodd" d="M20.9399 2.38006C23.1705 2.26598 24.7638 3.22598 25.7199 5.26006C25.8633 5.66642 26.0166 6.06642 26.1799 6.46006C26.3708 6.62798 26.5841 6.76134 26.8199 6.86006C27.2697 7.37666 27.383 7.96334 27.1599 8.62006C27.0112 9.11086 26.8778 9.60418 26.7599 10.1001C26.6665 10.407 26.5398 10.7003 26.3799 10.9801C26.1332 11.3497 25.8132 11.4363 25.4199 11.2401C25.2282 11.1151 25.0615 10.9617 24.9199 10.7801C24.4596 10.1995 24.0462 9.58614 23.6799 8.94006C23.4788 8.44154 23.4522 7.93486 23.5999 7.42006C23.8023 7.12566 24.0556 6.88566 24.3599 6.70006C24.4205 6.61818 24.4538 6.52482 24.4599 6.42006C24.2006 5.26854 23.5072 4.51522 22.3799 4.16006C20.2162 3.61882 18.7828 4.41214 18.0799 6.54006C17.6726 8.86546 18.5059 10.5921 20.5799 11.7201C21.6603 12.2616 22.7803 12.6616 23.9399 12.9201C25.1494 13.1349 26.3628 13.3616 27.5799 13.6001C28.4643 13.8311 29.3176 14.1511 30.1399 14.5601C32.0448 15.5755 33.0048 17.1688 33.0199 19.3401C32.8243 22.4384 31.4243 24.8251 28.8199 26.5001C27.7719 27.1245 26.6519 27.5245 25.4599 27.7001C25.4222 27.6957 25.3889 27.6824 25.3599 27.6601C25.3332 26.9534 25.3332 26.2467 25.3599 25.5401C27.9797 24.597 29.4064 22.7303 29.6399 19.9401C29.6666 19.4734 29.6666 19.0067 29.6399 18.5401C29.5324 17.9786 29.259 17.5119 28.8199 17.1401C28.2024 16.6839 27.5358 16.3306 26.8199 16.0801C25.0977 15.5415 23.391 14.9948 21.6999 14.4401C20.2821 13.9235 18.9488 13.2369 17.6999 12.3801C17.071 11.8781 16.5844 11.2647 16.2399 10.5401C15.6821 8.96726 15.6821 7.3939 16.2399 5.82006C17.2217 3.85614 18.7884 2.70948 20.9399 2.38006Z" fill="#01A768"/>
<path opacity="0.99" fill-rule="evenodd" clip-rule="evenodd" d="M5.17993 17.46C12.9199 17.4067 20.6666 17.4067 28.4199 17.46C28.9273 17.8949 29.1806 18.4482 29.1799 19.12C29.1743 20.6452 28.7409 22.0252 27.8799 23.26C27.0803 24.2309 26.0803 24.8709 24.8799 25.18C24.8731 27.4883 24.8531 29.795 24.8199 32.1C24.686 32.1315 24.5527 32.1649 24.4199 32.2C24.2453 32.2146 24.0786 32.2212 23.9199 32.22C23.6791 32.1583 23.4324 32.125 23.1799 32.12C23.1523 32.0774 23.1323 32.0307 23.1199 31.98C23.0999 29.8201 23.0933 27.6601 23.0999 25.5C20.1281 25.3792 17.4348 24.4392 15.0199 22.68C14.3205 22.1472 13.6272 21.6072 12.9399 21.06C11.2381 19.7883 9.33145 19.0749 7.21993 18.92C6.59929 18.7968 6.03929 18.5302 5.53993 18.12C5.35465 17.93 5.23465 17.71 5.17993 17.46Z" fill="#01A768"/>
<path opacity="0.981" fill-rule="evenodd" clip-rule="evenodd" d="M33.26 17.42C36.4334 17.4133 39.6067 17.42 42.78 17.44C42.7412 17.6967 42.6212 17.9233 42.42 18.12C41.7424 18.6985 40.9556 18.9785 40.06 18.96C38.4192 19.1995 36.8992 19.7862 35.5 20.72C34.6061 21.3935 33.7127 22.0668 32.82 22.74C32.8067 22.72 32.7933 22.7 32.78 22.68C33.5325 20.9795 33.6925 19.2262 33.26 17.42Z" fill="#01A768"/>
<path opacity="0.975" fill-rule="evenodd" clip-rule="evenodd" d="M22.54 25.62C22.5647 25.6244 22.5847 25.6378 22.6 25.66C22.6333 26.4603 22.6266 27.2603 22.58 28.06C22.2151 28.1857 21.8684 28.359 21.54 28.58C21.0598 29.1199 20.8331 29.7532 20.86 30.48C20.8172 31.2077 21.1105 31.7544 21.74 32.12C22.6368 32.5818 23.5968 32.7685 24.62 32.68C25.0841 32.6395 25.5375 32.5595 25.98 32.44C26.405 32.3139 26.7783 32.0939 27.1 31.78C27.3767 31.4062 27.4501 30.9929 27.32 30.54C27.2197 30.2745 27.0264 30.1212 26.74 30.08C26.5 30.0533 26.26 30.0533 26.02 30.08C25.7935 30.1299 25.5668 30.1766 25.34 30.22C25.3333 29.7132 25.34 29.2065 25.36 28.7C25.5518 28.589 25.7585 28.5157 25.98 28.48C26.4254 28.4086 26.8654 28.3286 27.3 28.24C28.0496 28.1897 28.7696 28.2964 29.46 28.56C30.0764 28.8431 30.4564 29.3165 30.6 29.98C30.7262 30.7674 30.5462 31.474 30.06 32.1C29.5081 32.7782 28.8414 33.3182 28.06 33.72C25.4589 34.9699 22.8855 34.9166 20.34 33.56C18.6495 32.5044 18.0028 30.9911 18.4 29.02C19.1216 27.0652 20.5016 25.9318 22.54 25.62Z" fill="#01A768"/>
<path opacity="0.917" fill-rule="evenodd" clip-rule="evenodd" d="M22.5801 29.74C22.6265 30.2397 22.6332 30.7464 22.6001 31.26C22.4247 31.4112 22.2447 31.5579 22.0601 31.7C21.6591 31.4914 21.4191 31.1647 21.3401 30.72C21.4654 30.5213 21.6254 30.3546 21.8201 30.22C22.07 30.0487 22.3233 29.8887 22.5801 29.74Z" fill="#01A768"/>
<path opacity="0.96" fill-rule="evenodd" clip-rule="evenodd" d="M19.6199 33.74C20.1713 34.1189 20.7579 34.4256 21.3799 34.66C21.3986 35.4828 21.6386 36.2294 22.0999 36.9C22.5528 37.4354 23.1128 37.7888 23.7799 37.96C24.7453 38.135 25.7187 38.2816 26.6999 38.4C27.1674 38.4872 27.6207 38.6205 28.0599 38.8C28.4195 38.9708 28.7328 39.2042 28.9999 39.5C29.1628 39.7158 29.2162 39.9558 29.1599 40.22C29.0463 40.3 28.9196 40.32 28.7799 40.28C28.4908 40.0028 28.1575 39.8028 27.7799 39.68C26.9958 39.6085 26.2092 39.5418 25.4199 39.48C24.6975 39.3936 23.9775 39.287 23.2599 39.16C22.2823 38.9381 21.389 38.5181 20.5799 37.9C19.8152 37.237 19.4285 36.397 19.4199 35.38C19.4492 34.8275 19.5159 34.2808 19.6199 33.74Z" fill="#01A768"/>
<path opacity="0.936" fill-rule="evenodd" clip-rule="evenodd" d="M23.1399 35.02C23.7006 35.0067 24.2606 35.02 24.8199 35.06C24.8733 35.9133 24.8733 36.7667 24.8199 37.62C24.7799 37.6333 24.7399 37.6467 24.6999 37.66C24.2667 37.5779 23.84 37.4646 23.4199 37.32C23.3154 37.2784 23.2221 37.2184 23.1399 37.14C23.0871 36.4333 23.0871 35.7267 23.1399 35.02Z" fill="#01A768"/>
<path opacity="0.959" fill-rule="evenodd" clip-rule="evenodd" d="M23.1001 39.66C23.5912 39.7163 24.0846 39.7763 24.5801 39.84C24.6713 39.8494 24.7513 39.8827 24.8201 39.94C24.8734 40.3668 24.8734 40.7932 24.8201 41.22C24.842 41.7364 25.0953 42.0896 25.5801 42.28C26.1655 42.488 26.7655 42.6348 27.3801 42.72C27.94 42.8336 28.4734 43.0272 28.9801 43.3C29.0947 43.3948 29.2147 43.4816 29.3401 43.56C29.6449 43.6264 29.9516 43.68 30.2601 43.72C31.0707 43.7288 31.8574 43.8488 32.6201 44.08C32.8471 44.1804 33.0471 44.3204 33.2201 44.5C33.2524 44.5628 33.2658 44.6296 33.2601 44.7C27.0734 44.7 20.8868 44.7 14.7001 44.7C14.6965 44.5432 14.7632 44.4232 14.9001 44.34C15.0477 44.2528 15.1943 44.1664 15.3401 44.08C15.5001 44.0268 15.6601 43.9732 15.8201 43.92C16.7536 43.8012 17.6869 43.6812 18.6201 43.56C19.2121 43.1292 19.8654 42.8492 20.5801 42.72C21.2639 42.6492 21.9172 42.476 22.5401 42.2C22.7731 42.0736 22.9531 41.8936 23.0801 41.66C23.0894 41.498 23.1094 41.338 23.1401 41.18C23.1008 40.6752 23.0875 40.1688 23.1001 39.66Z" fill="#01A768"/>
</svg>
